<?xml version="1.0" standalone="no"?>
<!DOCTYPE svg PUBLIC "-//W3C//DTD SVG 1.1//EN"
"http://www.w3.org/Graphics/SVG/1.1/DTD/svg11.dtd">

<svg width="317" height="229" view_box="0 0 317 229"
xmlns="http://www.w3.org/2000/svg"
xmlns:link="http://www.w3.org/1999/xlink">\n\n<desc>Généré par Mocodo 2.3.7 le Sun, 17 Jul 2022 11:24:33</desc>

<rect id="frame" x="0" y="0" width="317" height="229" fill="#ffffbf" stroke="none" stroke-width="0"/>

<!-- Association AVOIR -->
<line x1="172" y1="60" x2="270" y2="60" stroke="#66c2a5" stroke-width="2"/>
<text x="216" y="77.0" fill="#d53e4f" font-family="Verdana" font-size="12">0,N</text>
<line x1="270" y1="178" x2="270" y2="60" stroke="#66c2a5" stroke-width="2"/>
<text x="275.0" y="128" fill="#d53e4f" font-family="Verdana" font-size="12">0,N</text>
<g id="association-AVOIR">
	<path d="M 283 35 a 14 14 90 0 1 14 14 V 60 h -54 V 49 a 14 14 90 0 1 14 -14" fill="#abdda4" stroke="#abdda4" stroke-width="0"/>
	<path d="M 297 60.0 v 11 a 14 14 90 0 1 -14 14 H 257 a 14 14 90 0 1 -14 -14 V 60.0 H 54" fill="#e6f598" stroke="#e6f598" stroke-width="0"/>
	<rect x="243" y="35" width="54" height="50" fill="none" rx="14" stroke="#66c2a5" stroke-width="2"/>
	<line x1="243" y1="60" x2="297" y2="60" stroke="#66c2a5" stroke-width="1"/>
	<text x="250" y="52.7" fill="#000000" font-family="Verdana" font-size="12">AVOIR</text>
</g>

<!-- Association APPARTENIR -->
<line x1="55" y1="178" x2="55" y2="60" stroke="#66c2a5" stroke-width="2"/>
<text x="60.0" y="128" fill="#d53e4f" font-family="Verdana" font-size="12">0,N</text>
<line x1="172" y1="60" x2="55" y2="60" stroke="#66c2a5" stroke-width="2"/>
<text x="107" y="77.0" fill="#d53e4f" font-family="Verdana" font-size="12">1,1</text>
<g id="association-APPARTENIR">
	<path d="M 87 35 a 14 14 90 0 1 14 14 V 60 h -92 V 49 a 14 14 90 0 1 14 -14" fill="#abdda4" stroke="#abdda4" stroke-width="0"/>
	<path d="M 101 60.0 v 11 a 14 14 90 0 1 -14 14 H 23 a 14 14 90 0 1 -14 -14 V 60.0 H 92" fill="#e6f598" stroke="#e6f598" stroke-width="0"/>
	<rect x="9" y="35" width="92" height="50" fill="none" rx="14" stroke="#66c2a5" stroke-width="2"/>
	<line x1="9" y1="60" x2="101" y2="60" stroke="#66c2a5" stroke-width="1"/>
	<text x="16" y="52.7" fill="#000000" font-family="Verdana" font-size="12">APPARTENIR</text>
</g>

<!-- Entity LISTE -->
<g id="entity-LISTE">
	<g id="frame-LISTE">
		<rect x="19" y="136" width="72" height="25" fill="#fdae61" stroke="#fdae61" stroke-width="0"/>
		<rect x="19" y="161.0" width="72" height="59" fill="#fee08b" stroke="#fee08b" stroke-width="0"/>
		<rect x="19" y="136" width="72" height="84" fill="none" stroke="#f46d43" stroke-width="2"/>
		<line x1="19" y1="161" x2="91" y2="161" stroke="#f46d43" stroke-width="1"/>
	</g>
	<text x="37" y="153.7" fill="#000000" font-family="Verdana" font-size="12">LISTE</text>
	<text x="24" y="178.8" fill="#000000" font-family="Verdana" font-size="12">code_liste</text>
	<line x1="24" y1="181" x2="86" y2="181" stroke="#000000" stroke-width="1"/>
	<text x="24" y="195.8" fill="#000000" font-family="Verdana" font-size="12">nom</text>
	<text x="24" y="212.8" fill="#000000" font-family="Verdana" font-size="12">position</text>
</g>

<!-- Entity CARTE -->
<g id="entity-CARTE">
	<g id="frame-CARTE">
		<rect x="133" y="9" width="78" height="25" fill="#fdae61" stroke="#fdae61" stroke-width="0"/>
		<rect x="133" y="34.0" width="78" height="77" fill="#fee08b" stroke="#fee08b" stroke-width="0"/>
		<rect x="133" y="9" width="78" height="102" fill="none" stroke="#f46d43" stroke-width="2"/>
		<line x1="133" y1="34" x2="211" y2="34" stroke="#f46d43" stroke-width="1"/>
	</g>
	<text x="151" y="26.7" fill="#000000" font-family="Verdana" font-size="12">CARTE</text>
	<text x="138" y="51.7" fill="#000000" font-family="Verdana" font-size="12">code_carte</text>
	<line x1="138" y1="54" x2="205" y2="54" stroke="#000000" stroke-width="1"/>
	<text x="138" y="68.8" fill="#000000" font-family="Verdana" font-size="12">description</text>
	<text x="138" y="85.8" fill="#000000" font-family="Verdana" font-size="12">position</text>
	<text x="138" y="102.8" fill="#000000" font-family="Verdana" font-size="12">couleur</text>
</g>

<!-- Entity LABEL -->
<g id="entity-LABEL">
	<g id="frame-LABEL">
		<rect x="232" y="136" width="76" height="25" fill="#fdae61" stroke="#fdae61" stroke-width="0"/>
		<rect x="232" y="161.0" width="76" height="59" fill="#fee08b" stroke="#fee08b" stroke-width="0"/>
		<rect x="232" y="136" width="76" height="84" fill="none" stroke="#f46d43" stroke-width="2"/>
		<line x1="232" y1="161" x2="308" y2="161" stroke="#f46d43" stroke-width="1"/>
	</g>
	<text x="251" y="153.7" fill="#000000" font-family="Verdana" font-size="12">LABEL</text>
	<text x="237" y="178.8" fill="#000000" font-family="Verdana" font-size="12">code_label</text>
	<line x1="237" y1="181" x2="302" y2="181" stroke="#000000" stroke-width="1"/>
	<text x="237" y="195.8" fill="#000000" font-family="Verdana" font-size="12">nom</text>
	<text x="237" y="212.8" fill="#000000" font-family="Verdana" font-size="12">couleur</text>
</g>
</svg>